<svg viewBox="0 0 14 10" fill="#FFFFFF" stroke="#FFFFFF" xmlns="http://www.w3.org/2000/svg">
<path d="M4.5678 7.92199L4.91918 8.28575L5.2789 7.93023L12.6522 0.642896C12.6524 0.642693 12.6526 0.64249 12.6528 0.642287C12.8493 0.450435 13.1637 0.452901 13.3571 0.647829C13.5494 0.844107 13.5473 1.1588 13.3524 1.35243C13.3523 1.35254 13.3522 1.35265 13.3521 1.35276L5.26191 9.35201L5.26185 9.35207C5.16878 9.44412 5.04331 9.49599 4.91242 9.49654H4.90376C4.83787 9.49616 4.77271 9.48277 4.71202 9.45713C4.65158 9.43159 4.59676 9.39441 4.55069 9.3477L0.643387 5.29847L0.642923 5.298L0.639202 5.29416C0.639001 5.29395 0.6388 5.29374 0.638599 5.29353C0.448057 5.09427 0.454778 4.77825 0.653831 4.58727L0.653851 4.58725C0.853065 4.39609 1.16955 4.40261 1.36074 4.60188L1.36191 4.60309L4.5678 7.92199Z" />
</svg>
